<?xml version="1.0" encoding="utf-8"?>
<!-- Generator: Adobe Illustrator 26.0.3, SVG Export Plug-In . SVG Version: 6.00 Build 0)  -->
<svg version="1.1" id="Layer_1" xmlns="http://www.w3.org/2000/svg" xmlns:xlink="http://www.w3.org/1999/xlink" x="0px" y="0px"
	 viewBox="0 0 612 792" style="enable-background:new 0 0 612 792;" xml:space="preserve">
<style type="text/css">
	.st0{fill:#4C4F83;stroke:#000000;stroke-width:2;stroke-miterlimit:10;}
	.st1{fill:#E30881;stroke:#000000;stroke-width:2;stroke-miterlimit:10;}
	.st2{fill:#961D59;stroke:#000000;stroke-width:2;stroke-miterlimit:10;}
	.st3{fill:#08BED3;stroke:#000000;stroke-width:2;stroke-miterlimit:10;}
	.st4{fill:#277497;stroke:#000000;stroke-width:2;stroke-miterlimit:10;}
	.st5{fill:#71276C;stroke:#000000;stroke-width:2;stroke-miterlimit:10;}
</style>
<g>
	<path class="st0" d="M232.82,128.92h2.91c2.52,0,4.93,0.46,7.17,1.26c-2.19-5.1-6.31-9.17-11.44-11.3
		c0.86,2.32,1.36,4.81,1.36,7.43V128.92z"/>
	<path class="st0" d="M107.05,254.99h-2.91c-2.89,0-5.64-0.58-8.15-1.62c2.19,5.88,6.88,10.51,12.79,12.63
		c-1.11-2.58-1.72-5.42-1.72-8.4V254.99z"/>
	<path class="st1" d="M94.63,138.58c0-11.77,9.54-21.32,21.32-21.32h107.36c2.89,0,5.64,0.58,8.15,1.62
		c-3.02-8.11-10.8-13.89-19.96-13.89H104.13c-11.77,0-21.32,9.54-21.32,21.32v107.36c0,8.89,5.44,16.49,13.17,19.7
		c-0.86-2.32-1.36-4.81-1.36-7.43V138.58z"/>
	<path class="st2" d="M107.05,254.99V150.24c0-11.77,9.54-21.32,21.32-21.32h104.45v-2.61c0-2.62-0.49-5.11-1.36-7.43
		c-2.51-1.04-5.26-1.62-8.15-1.62H115.94c-11.77,0-21.32,9.54-21.32,21.32v107.36c0,2.62,0.49,5.11,1.36,7.43
		c2.51,1.04,5.26,1.62,8.15,1.62H107.05z"/>
	<path class="st3" d="M242.9,130.18c1.11,2.58,1.72,5.42,1.72,8.4v107.36c0,11.77-9.54,21.32-21.32,21.32H115.94
		c-2.52,0-4.93-0.46-7.17-1.26c3.26,7.6,10.8,12.92,19.59,12.92h107.36c11.77,0,21.32-9.54,21.32-21.32V150.24
		C257.05,140.99,251.14,133.13,242.9,130.18z"/>
	<path class="st4" d="M223.31,267.26c11.77,0,21.32-9.54,21.32-21.32V138.58c0-2.98-0.62-5.82-1.72-8.4
		c-2.24-0.8-4.65-1.26-7.17-1.26h-2.91v104.75c0,11.77-9.54,21.32-21.32,21.32H107.05v2.61c0,2.98,0.62,5.82,1.72,8.4
		c2.24,0.8,4.65,1.26,7.17,1.26H223.31z"/>
	<path class="st5" d="M107.05,150.24v104.75H211.5c11.77,0,21.32-9.54,21.32-21.32V128.92H128.37
		C116.59,128.92,107.05,138.47,107.05,150.24z"/>
</g>
</svg>
